<?xml version="1.0" standalone="no"?>
<!DOCTYPE svg PUBLIC "-//W3C//DTD SVG 20010904//EN"
 "http://www.w3.org/TR/2001/REC-SVG-20010904/DTD/svg10.dtd">
<svg version="1.0" xmlns="http://www.w3.org/2000/svg"
 width="735.000000pt" height="732.000000pt" viewBox="0 0 735.000000 732.000000"
 preserveAspectRatio="xMidYMid meet">
<metadata>
Created by potrace 1.10, written by Peter Selinger 2001-2011
</metadata>
<g transform="translate(0.000000,732.000000) scale(0.100000,-0.100000)"
fill="#000000" stroke="none">
<path d="M3370 7164 c-200 -13 -328 -30 -485 -64 -55 -12 -119 -26 -143 -31
-24 -5 -47 -11 -52 -14 -5 -3 -28 -9 -52 -14 -24 -5 -68 -19 -98 -31 -30 -12
-68 -25 -85 -30 -16 -5 -46 -14 -65 -20 -32 -12 -51 -19 -135 -55 -16 -7 -50
-20 -75 -30 -85 -34 -195 -89 -252 -126 -32 -21 -101 -59 -155 -86 -53 -26
-123 -67 -155 -90 -32 -24 -61 -43 -64 -43 -11 0 -200 -149 -230 -181 -17 -19
-71 -70 -119 -114 -49 -44 -114 -105 -145 -135 -30 -30 -71 -68 -91 -85 -50
-43 -259 -305 -259 -325 0 -5 -20 -38 -45 -74 -25 -37 -45 -68 -45 -71 0 -2
-26 -42 -57 -88 -75 -109 -78 -113 -108 -172 -14 -27 -30 -57 -35 -65 -17 -28
-88 -185 -125 -275 -94 -230 -120 -311 -155 -490 -4 -22 -15 -69 -25 -104 -16
-60 -16 -66 -1 -77 15 -10 15 -12 -3 -17 -24 -6 -25 -13 -46 -262 -18 -211
-15 -741 4 -805 6 -19 11 -66 11 -104 0 -38 7 -99 15 -135 9 -36 23 -97 31
-136 23 -103 44 -185 59 -225 28 -79 37 -106 45 -135 13 -47 58 -159 79 -195
4 -8 15 -31 23 -50 17 -38 144 -296 158 -320 79 -137 106 -180 129 -205 26
-28 91 -129 91 -141 0 -6 83 -117 116 -154 12 -14 55 -63 95 -110 80 -95 215
-230 229 -230 10 0 81 -64 169 -151 61 -61 170 -147 244 -193 26 -17 47 -34
47 -38 0 -5 10 -13 23 -18 12 -6 34 -18 49 -28 83 -52 197 -122 202 -122 3 0
25 -13 49 -30 25 -16 50 -30 56 -30 6 0 27 -7 48 -16 89 -38 109 -47 135 -60
14 -8 33 -14 41 -14 8 0 20 -7 27 -15 7 -8 22 -15 34 -15 11 0 30 -7 40 -15
11 -8 29 -15 40 -15 12 0 30 -7 40 -15 11 -8 28 -15 38 -15 9 0 32 -6 50 -14
83 -35 158 -59 283 -89 33 -8 83 -21 110 -27 28 -7 64 -15 80 -17 17 -2 68
-10 115 -18 199 -34 332 -45 530 -45 221 0 340 11 640 60 78 13 273 64 385
102 17 5 44 13 60 18 17 5 55 18 85 30 30 12 70 25 89 30 18 5 38 13 44 19 6
6 17 11 25 11 8 0 56 20 106 43 50 24 111 52 136 62 25 9 52 21 60 26 8 5 29
15 45 23 17 8 53 29 80 45 28 17 59 35 70 41 11 6 34 19 50 30 17 11 39 24 50
29 11 6 52 35 90 66 39 30 113 88 165 129 52 41 111 89 131 108 21 18 60 54
88 81 29 26 56 47 62 47 20 0 171 164 259 280 49 66 102 134 118 151 15 17 29
36 32 43 3 7 15 26 27 42 57 73 123 164 123 169 0 3 12 24 27 48 88 138 260
495 288 597 10 36 24 79 31 97 8 17 14 38 14 47 0 8 6 30 14 48 13 31 26 73
60 198 30 113 38 146 45 195 4 28 13 84 19 125 38 242 53 639 31 800 -5 41
-14 118 -19 170 -4 52 -13 122 -20 155 -30 154 -43 214 -56 261 -8 28 -14 58
-14 67 0 9 -6 31 -14 49 -7 18 -21 60 -31 93 -9 33 -23 74 -30 90 -8 17 -21
57 -30 90 -17 60 -26 85 -59 160 -27 61 -43 98 -50 115 -3 8 -10 22 -15 30 -5
8 -19 35 -31 60 -38 79 -84 156 -137 235 -29 41 -53 78 -53 81 0 4 -13 23 -30
44 -16 21 -30 41 -30 45 0 7 -101 142 -165 220 -22 28 -58 76 -79 108 -21 31
-42 57 -47 57 -5 0 -74 62 -152 138 -194 186 -219 208 -317 282 -47 34 -98 75
-115 91 -31 28 -161 119 -171 119 -7 0 -129 61 -174 88 -39 22 -287 147 -335
168 -16 7 -46 20 -67 28 -20 9 -41 16 -47 16 -6 0 -25 6 -43 14 -64 26 -174
61 -243 76 -71 16 -129 32 -163 46 -18 8 -45 14 -60 14 -15 0 -43 5 -62 11
-50 15 -235 39 -380 49 -218 16 -350 16 -540 4z m340 -229 c0 -8 -7 -15 -15
-15 -8 0 -15 7 -15 15 0 8 7 15 15 15 8 0 15 -7 15 -15z m288 -87 c26 -26 11
-35 -65 -43 -43 -4 -87 -7 -98 -7 -11 0 -38 -4 -60 -9 -22 -5 -78 -14 -125
-19 -106 -12 -341 -55 -435 -79 -88 -23 -182 -41 -209 -41 -16 0 -53 -7 -83
-15 -29 -8 -77 -22 -106 -30 -30 -8 -63 -15 -75 -15 -11 0 -23 -4 -27 -9 -3
-6 -27 -13 -53 -17 -26 -3 -56 -12 -68 -19 -12 -8 -36 -15 -55 -17 -19 -2 -32
-7 -29 -13 6 -12 38 -11 105 5 28 6 84 18 125 27 41 8 95 20 120 25 25 6 70
14 100 18 60 8 149 25 221 41 76 17 246 40 364 49 61 4 142 13 180 19 116 17
244 31 350 36 142 8 457 -18 555 -45 57 -15 60 -18 54 -35 -4 -10 -25 -13 -77
-13 -70 0 -440 -18 -542 -27 -64 -6 -225 -29 -385 -55 -69 -11 -150 -23 -180
-27 -30 -3 -63 -10 -72 -14 -9 -5 -45 -13 -80 -18 -35 -6 -74 -13 -88 -16 -29
-8 -67 -17 -160 -41 -36 -9 -103 -22 -150 -29 -47 -8 -116 -21 -155 -30 -38
-9 -104 -23 -145 -30 -92 -17 -165 -33 -205 -46 -17 -5 -53 -12 -80 -15 -28
-3 -69 -12 -93 -20 -23 -8 -57 -14 -75 -14 -39 0 -66 -15 -52 -28 6 -5 35 -6
70 -1 153 21 366 60 395 73 8 3 42 10 75 16 160 26 225 38 285 53 36 9 121 24
190 33 69 9 148 20 175 24 28 5 80 9 117 9 37 1 89 5 115 11 26 5 111 14 188
20 77 6 174 14 215 20 182 22 540 33 714 21 240 -17 374 -35 446 -61 43 -16
161 -72 175 -83 10 -8 125 -84 153 -102 47 -29 212 -157 228 -177 11 -13 38
-36 62 -52 122 -83 480 -496 570 -658 18 -32 45 -77 60 -100 36 -54 56 -104
47 -117 -4 -7 -92 -11 -260 -11 -240 0 -284 -5 -260 -28 4 -4 131 -9 283 -12
l277 -5 63 -128 c35 -71 61 -134 59 -141 -4 -10 -110 -14 -469 -20 -453 -7
-764 -19 -776 -30 -21 -22 -9 -22 738 -26 552 -3 570 -5 570 -48 0 -9 7 -30
15 -45 8 -16 16 -52 17 -80 l3 -52 -235 -6 c-379 -10 -421 -12 -425 -19 -7
-12 168 -20 425 -20 210 0 249 -2 260 -15 15 -18 58 -177 52 -194 -3 -8 -79
-11 -273 -11 -213 0 -277 -3 -304 -14 -36 -16 -44 -36 -22 -54 9 -8 110 -12
307 -12 249 0 297 -2 309 -15 10 -10 18 -45 22 -98 4 -45 10 -119 14 -163 7
-74 6 -83 -11 -92 -12 -6 -356 -12 -934 -15 -503 -3 -916 -6 -917 -6 -2 -1 -3
-12 -3 -26 0 -14 1 -26 3 -27 1 -2 423 -5 937 -8 l935 -5 0 -160 0 -160 -158
-6 c-122 -4 -161 -9 -168 -20 -18 -29 -1 -34 137 -36 196 -4 188 0 180 -76 -3
-34 -10 -102 -15 -152 -10 -92 -22 -162 -46 -250 -15 -54 -31 -120 -45 -175
-11 -46 -29 -98 -46 -132 -8 -14 -14 -34 -14 -45 0 -10 -7 -27 -15 -37 -8 -11
-15 -28 -15 -37 0 -10 -6 -30 -14 -46 -19 -38 -72 -155 -80 -173 -3 -8 -10
-22 -15 -30 -5 -8 -12 -22 -15 -30 -4 -8 -16 -31 -27 -50 -12 -19 -33 -57 -48
-83 -37 -67 -43 -79 -67 -112 -11 -17 -32 -52 -45 -80 -27 -57 -73 -121 -128
-180 -20 -22 -48 -56 -61 -75 -14 -19 -40 -52 -59 -72 -18 -21 -40 -47 -48
-58 -30 -42 -43 -44 -483 -56 -400 -12 -511 -18 -805 -45 -343 -32 -439 -44
-680 -83 -61 -10 -151 -27 -195 -37 -25 -6 -65 -14 -90 -19 -25 -4 -63 -13
-85 -18 -22 -6 -76 -18 -120 -27 -44 -9 -102 -23 -129 -31 -26 -7 -59 -14 -71
-14 -13 0 -36 -5 -52 -11 -15 -6 -46 -14 -67 -17 -22 -4 -41 -13 -44 -20 -5
-15 91 -17 134 -2 16 5 67 14 114 20 89 10 183 22 365 45 197 25 308 37 415
45 99 7 195 17 390 41 47 6 150 15 230 19 80 5 195 13 255 19 169 15 737 19
742 5 2 -6 -21 -28 -51 -48 -48 -32 -62 -36 -118 -36 -35 0 -101 -5 -148 -11
-47 -5 -134 -14 -195 -19 -113 -8 -236 -20 -480 -46 -77 -8 -166 -14 -198 -14
-32 0 -95 -7 -140 -14 -45 -8 -136 -20 -202 -27 -229 -22 -270 -27 -355 -38
-47 -7 -105 -17 -130 -23 -25 -5 -74 -14 -110 -19 -108 -15 -318 -54 -401 -75
-30 -8 -67 -14 -82 -14 -14 0 -28 -4 -32 -9 -3 -6 -27 -13 -53 -16 -47 -6
-137 -25 -242 -50 -30 -7 -91 -21 -135 -30 -127 -27 -325 -74 -381 -90 -28 -8
-61 -15 -73 -15 -12 0 -30 -4 -39 -9 -13 -7 -41 4 -107 40 -49 26 -110 58
-135 71 -25 12 -71 42 -103 65 -31 24 -59 43 -62 43 -5 0 -98 61 -105 70 -11
12 -134 94 -159 107 -8 3 -22 14 -31 22 -9 9 -44 39 -79 66 -34 28 -99 91
-145 140 -244 263 -276 299 -266 309 6 6 56 12 113 14 75 3 107 8 120 20 17
16 17 17 1 29 -13 9 -59 13 -155 13 -123 0 -139 2 -163 21 -38 30 -138 184
-134 206 3 17 27 19 337 26 290 6 337 9 353 24 29 26 21 39 -33 56 -44 15
-103 17 -399 17 l-348 0 -27 55 c-16 30 -26 57 -24 59 2 3 249 6 547 9 490 3
544 5 560 20 12 13 13 20 4 29 -13 13 -269 24 -791 32 -396 6 -361 -1 -402 86
-45 95 -49 106 -51 130 l-3 25 175 2 c96 1 391 7 655 13 264 7 557 13 652 13
115 1 176 6 184 14 34 35 -67 39 -1041 48 -360 4 -659 8 -663 9 -12 2 -47 104
-47 133 0 13 6 26 13 28 6 3 164 8 350 13 395 8 454 23 132 34 -365 11 -490
17 -506 23 -9 3 -23 32 -32 63 -30 111 -50 203 -44 208 3 3 67 7 144 9 831 22
781 19 769 50 -10 26 -46 32 -211 34 -270 2 -690 13 -698 18 -22 13 -38 83
-23 105 0 1 242 5 537 8 441 4 539 7 553 19 15 12 15 16 3 29 -20 19 -70 21
-624 22 -263 1 -475 5 -478 10 -7 12 -9 340 -1 347 3 3 115 8 248 10 134 3
247 9 253 14 6 6 4 15 -6 24 -11 12 -61 16 -254 20 l-240 5 0 103 c0 74 4 109
14 120 11 15 37 17 172 17 151 0 159 1 159 20 0 33 -33 40 -190 40 -141 0
-152 1 -145 18 9 24 23 92 39 188 7 44 17 87 22 95 4 8 11 34 15 59 13 79 48
199 75 253 8 16 14 33 14 39 0 6 14 40 30 75 17 34 30 69 30 77 0 7 7 19 15
26 8 7 15 18 15 25 0 8 6 26 14 42 8 15 21 46 29 68 25 65 26 68 48 105 12 19
32 53 43 75 35 64 96 158 121 185 13 14 38 46 57 71 32 46 84 111 156 198 21
24 44 53 52 64 72 94 264 287 287 287 4 0 29 20 55 44 50 48 243 196 254 196
3 0 23 14 44 30 21 17 41 30 45 30 4 0 24 13 44 29 50 39 102 68 276 154 187
93 231 111 325 136 41 10 86 23 100 29 23 9 64 21 210 57 105 27 199 45 234
45 19 0 47 5 63 11 34 13 153 28 293 35 58 4 107 8 109 10 2 2 111 4 241 4
170 0 239 -3 248 -12z m2917 -2358 c11 -34 -6 -45 -26 -19 -24 31 -24 39 0 39
11 0 22 -9 26 -20z m-6686 -819 c16 -10 6 -31 -14 -31 -14 0 -27 24 -18 34 8
8 15 7 32 -3z m-95 -126 c5 -15 -18 -45 -35 -45 -14 0 -11 18 9 39 9 11 18 20
18 20 1 1 4 -6 8 -14z m6850 -625 c-4 -30 -13 -65 -20 -77 -8 -12 -14 -42 -14
-67 0 -56 -9 -83 -21 -64 -13 20 -11 80 4 108 7 14 14 51 15 84 3 66 19 108
33 85 5 -8 6 -39 3 -69z m-464 -1087 c0 -29 -143 -223 -164 -223 -36 0 -24 27
42 98 23 25 42 50 42 56 0 15 56 76 69 76 6 0 11 -3 11 -7z m-970 -796 c0 -23
-97 -87 -132 -87 -43 0 -294 -27 -424 -45 -56 -8 -121 -15 -145 -15 -24 0 -84
-7 -134 -15 -49 -8 -113 -15 -140 -15 -28 0 -66 -5 -85 -10 -19 -6 -73 -15
-120 -20 -92 -10 -199 -25 -298 -42 -35 -6 -100 -14 -145 -18 -91 -9 -188 -24
-288 -46 -37 -8 -81 -14 -97 -14 -17 0 -43 -5 -59 -11 -15 -6 -62 -15 -103
-20 -41 -5 -106 -16 -145 -24 -38 -8 -95 -20 -125 -26 -30 -6 -77 -17 -104
-25 -26 -8 -58 -14 -69 -14 -11 0 -43 -6 -71 -14 -101 -28 -185 -46 -215 -46
-35 0 -161 39 -161 50 0 20 82 55 165 71 22 4 58 12 80 17 22 6 76 18 120 27
44 9 106 23 137 31 32 8 67 14 79 14 12 0 42 7 68 15 76 23 339 75 385 75 18
0 46 5 62 10 16 6 58 14 94 19 36 5 90 14 120 20 118 23 396 61 525 71 50 4
128 12 175 18 47 7 159 19 250 27 91 9 233 22 315 31 83 8 195 16 250 17 55 2
130 4 168 5 49 1 67 -1 67 -11z m-480 -301 c0 -13 -62 -47 -175 -96 -33 -14
-85 -24 -210 -40 -44 -6 -114 -15 -155 -21 -77 -12 -182 -19 -545 -38 -115 -6
-248 -16 -295 -22 -47 -6 -128 -15 -180 -20 -130 -11 -289 -35 -323 -48 -67
-26 -357 3 -350 34 2 6 35 13 75 16 40 4 86 12 101 18 16 6 45 11 65 11 20 0
59 7 86 15 27 8 68 15 90 15 23 0 76 7 119 15 43 8 104 15 135 15 32 0 73 5
92 10 19 6 100 15 180 20 80 6 168 15 195 20 28 5 80 9 117 9 37 1 89 6 115
11 26 6 95 14 153 19 149 14 294 30 375 43 73 11 207 24 288 26 35 2 47 -2 47
-12z m-1069 -303 c33 -7 33 -7 9 -14 -34 -9 -205 -11 -196 -2 6 7 54 14 137
22 9 0 32 -2 50 -6z m-231 -33 c-8 -5 -62 -9 -120 -9 -128 2 -90 16 45 18 61
0 85 -2 75 -9z"/>
<path d="M4300 6434 c-8 -2 -100 -11 -205 -19 -187 -15 -235 -21 -405 -50 -47
-8 -98 -15 -115 -15 -16 0 -61 -6 -100 -14 -93 -20 -189 -37 -250 -47 -27 -4
-75 -13 -105 -19 -30 -6 -86 -17 -125 -25 -38 -7 -97 -19 -130 -25 -33 -7 -82
-16 -110 -20 -27 -4 -75 -13 -105 -19 -30 -7 -89 -19 -130 -27 -41 -8 -103
-22 -137 -30 -34 -8 -75 -14 -91 -14 -17 0 -43 -5 -59 -11 -15 -6 -57 -14 -93
-19 -36 -4 -94 -13 -130 -20 -196 -35 -232 -40 -268 -40 -46 0 -72 -8 -72 -22
0 -12 175 -6 305 10 94 12 290 30 460 42 55 4 127 12 160 18 69 12 261 40 320
46 45 5 194 29 270 45 28 5 95 17 150 26 55 9 132 23 170 30 39 8 122 21 185
30 63 10 129 22 145 27 31 10 89 19 262 42 56 8 105 16 110 19 17 10 537 38
585 32 32 -5 48 -3 48 4 0 23 -49 39 -150 51 -107 13 -363 22 -390 14z"/>
<path d="M2070 6233 c-58 -6 -81 -13 -75 -23 8 -13 81 -13 106 0 18 10 27 32
12 28 -5 0 -24 -3 -43 -5z"/>
<path d="M4258 6113 c-63 -3 -78 -7 -78 -20 0 -14 14 -15 115 -11 64 3 119 8
123 12 11 12 -21 26 -53 24 -16 -1 -65 -4 -107 -5z"/>
<path d="M3815 6080 c-74 -8 -222 -27 -335 -42 -47 -6 -121 -14 -165 -18 -44
-3 -87 -9 -95 -13 -14 -7 -43 -12 -230 -42 -201 -32 -253 -43 -268 -59 -24
-23 -2 -39 45 -33 21 2 81 10 133 16 52 7 145 18 205 26 61 8 126 16 145 19
19 2 64 9 100 15 90 15 239 40 275 45 103 15 292 47 318 54 18 5 32 15 32 23
0 16 -65 20 -160 9z"/>
<path d="M4860 5995 c-25 -13 -54 -28 -65 -34 -11 -5 -71 -50 -134 -101 -63
-50 -124 -96 -135 -102 -12 -6 -43 -28 -71 -48 -27 -20 -86 -54 -130 -75 -44
-21 -92 -44 -107 -51 -14 -8 -33 -14 -42 -14 -8 0 -30 -6 -48 -14 -18 -8 -67
-21 -108 -30 -211 -44 -240 -45 -985 -51 -863 -6 -1103 -21 -1265 -80 -45 -16
-208 -95 -245 -118 -85 -53 -205 -157 -205 -178 0 -4 -22 -34 -50 -66 -27 -32
-50 -62 -50 -67 0 -5 -6 -17 -14 -25 -35 -39 -99 -188 -118 -274 -30 -139 -14
-304 40 -427 40 -92 202 -265 282 -302 25 -11 54 -25 65 -31 10 -5 69 -18 130
-29 105 -18 114 -18 195 -2 282 56 525 314 532 565 2 60 -1 73 -17 85 -23 17
-49 18 -62 2 -6 -7 -19 -49 -31 -93 -11 -44 -27 -97 -36 -117 -21 -49 -116
-145 -152 -154 -16 -4 -34 -11 -40 -16 -17 -12 -120 -38 -154 -38 -35 0 -119
19 -140 31 -8 5 -24 13 -36 18 -29 13 -84 61 -84 74 0 6 -6 18 -13 26 -7 9
-18 48 -25 86 -16 100 16 287 56 327 7 7 12 16 12 20 0 32 122 148 202 193
203 115 350 148 633 143 l180 -3 0 -1385 c0 -1404 -1 -1435 -36 -1620 -6 -30
-14 -89 -19 -130 -5 -41 -13 -88 -19 -103 -6 -16 -11 -41 -11 -56 0 -16 -7
-34 -15 -41 -8 -7 -15 -17 -15 -23 0 -9 -45 -103 -85 -176 -22 -39 -130 -144
-166 -162 -119 -57 -150 -61 -221 -29 -25 11 -58 37 -74 57 -28 36 -29 43 -28
138 0 90 3 104 26 140 69 109 227 226 336 250 59 12 93 35 90 59 -3 19 -10 21
-80 24 -76 3 -140 -12 -228 -53 -84 -39 -110 -60 -174 -136 -121 -144 -146
-205 -146 -356 0 -103 2 -110 52 -220 21 -46 121 -150 153 -159 11 -3 34 -11
50 -18 67 -30 104 -38 192 -43 95 -6 204 12 266 43 16 8 35 14 43 14 18 0 87
36 149 78 100 67 223 201 281 305 53 95 104 208 104 234 0 10 7 27 15 37 8 11
15 28 15 39 0 11 7 40 15 66 8 25 22 93 32 151 16 96 17 236 21 1585 2 1126 6
1481 15 1487 7 4 174 8 372 8 281 0 380 3 450 16 131 22 236 44 270 56 17 5
47 14 68 19 21 5 45 13 55 18 9 5 64 32 122 60 58 29 117 60 132 69 54 34 137
93 150 105 7 7 41 34 75 60 35 27 68 58 74 70 7 12 25 35 41 51 15 17 28 33
28 38 0 4 14 27 30 50 17 22 30 47 30 55 0 26 27 12 43 -22 22 -46 24 -229 3
-295 -8 -25 -22 -70 -32 -100 -9 -30 -23 -62 -30 -71 -8 -8 -14 -20 -14 -25
-1 -18 -107 -122 -182 -178 -42 -31 -79 -63 -81 -71 -3 -7 5 -23 17 -34 22
-21 26 -21 62 -7 62 23 67 25 99 46 17 11 40 24 52 29 52 23 243 255 243 294
0 7 5 18 12 25 28 28 57 138 65 242 14 192 -66 369 -205 454 -55 33 -66 36
-133 35 -58 0 -84 -5 -119 -24z"/>
<path d="M2415 5878 c-192 -29 -269 -38 -312 -38 -26 0 -64 -5 -83 -10 -19 -6
-81 -14 -138 -19 -58 -4 -108 -13 -115 -20 -21 -22 294 -3 683 42 97 11 105
14 108 35 3 20 0 22 -40 21 -24 -1 -70 -6 -103 -11z"/>
<path d="M1547 5774 c-13 -13 5 -24 37 -24 47 0 96 11 96 21 0 10 -123 12
-133 3z"/>
<path d="M5664 5166 c-9 -24 4 -63 23 -70 11 -5 26 2 42 19 21 20 24 29 15 43
-15 23 -72 29 -80 8z"/>
<path d="M3540 4595 c-19 -23 -5 -41 47 -60 103 -37 136 -62 188 -144 50 -80
50 -86 48 -1107 -2 -992 -8 -1169 -43 -1283 -34 -108 -112 -245 -169 -295
-113 -100 -116 -105 -105 -122 26 -44 38 -43 136 7 42 21 109 41 188 54 67 12
204 15 650 15 711 1 853 10 1010 61 181 59 412 243 531 424 123 187 166 345
155 565 -6 111 -29 207 -55 233 -6 6 -11 17 -11 25 0 20 -58 120 -108 185 -77
101 -180 175 -335 241 -27 11 -69 16 -146 16 -89 0 -120 -4 -175 -24 -77 -28
-150 -73 -186 -113 -50 -56 -64 -80 -111 -203 -7 -19 -15 -81 -17 -138 -3 -82
0 -108 13 -128 19 -29 29 -30 55 -4 16 16 20 34 20 98 1 76 17 141 52 208 19
34 108 124 124 124 5 0 15 5 21 11 21 21 117 48 168 48 84 0 153 -30 208 -91
53 -58 72 -95 93 -178 36 -146 -2 -376 -86 -520 -4 -8 -18 -35 -29 -60 -30
-65 -106 -137 -210 -199 -85 -50 -131 -69 -256 -105 -111 -32 -199 -39 -527
-43 l-338 -5 -10 27 c-14 37 -14 2080 0 2161 6 32 20 79 32 103 22 46 111 141
133 141 7 0 18 7 25 15 7 8 21 15 31 15 26 0 25 36 -2 50 -16 9 -43 8 -114 -4
-128 -22 -613 -23 -735 -1 -107 19 -144 19 -160 0z"/>
<path d="M5891 4233 c-14 -27 1 -45 35 -41 23 2 29 8 29 28 0 20 -6 26 -27 28
-18 2 -30 -3 -37 -15z"/>
<path d="M1100 3771 c0 -36 33 -52 57 -28 24 24 8 57 -28 57 -25 0 -29 -4 -29
-29z"/>
<path d="M6287 3381 c-6 -24 15 -44 40 -39 12 2 18 12 18 28 0 33 -49 42 -58
11z"/>
<path d="M1748 3359 c-23 -13 -23 -56 0 -68 47 -25 98 35 57 66 -22 15 -34 16
-57 2z"/>
<path d="M6418 3104 c-4 -3 -4 -12 -1 -20 4 -11 27 -14 95 -14 80 0 89 2 86
18 -3 14 -17 17 -89 20 -47 1 -88 0 -91 -4z"/>
<path d="M1456 2785 c-23 -34 -6 -65 34 -65 17 0 30 4 30 9 0 5 3 16 6 24 5
15 -28 57 -45 57 -5 0 -16 -11 -25 -25z"/>
</g>
</svg>
