<?xml version="1.0" standalone="no"?>
<!DOCTYPE svg PUBLIC "-//W3C//DTD SVG 20010904//EN"
 "http://www.w3.org/TR/2001/REC-SVG-20010904/DTD/svg10.dtd">
<svg version="1.0" xmlns="http://www.w3.org/2000/svg"
 width="708.000000pt" height="918.000000pt" viewBox="0 0 708.000000 918.000000"
 preserveAspectRatio="xMidYMid meet">
<metadata>
Created by potrace 1.10, written by Peter Selinger 2001-2011
</metadata>
<g transform="translate(0.000000,918.000000) scale(0.100000,-0.100000)"
fill="#000000" stroke="none">
<path d="M345 8798 c-3 -7 -4 -283 -3 -613 l3 -600 305 0 305 0 5 265 5 265
2285 5 2285 5 3 343 2 342 -2595 0 c-2067 0 -2597 -3 -2600 -12z"/>
<path d="M3177 7703 c-4 -3 -7 -421 -7 -928 0 -881 -1 -923 -18 -938 -15 -13
-43 -18 -127 -20 l-108 -2 -94 105 c-85 95 -229 296 -253 352 -6 13 -14 30
-20 38 -26 42 -70 145 -70 167 0 14 -6 37 -14 51 -21 40 -40 218 -33 309 15
181 21 219 33 238 8 11 14 30 14 43 0 51 110 312 132 312 22 0 3 40 -37 80
-71 70 -101 64 -276 -55 -124 -83 -299 -268 -391 -413 -27 -42 -88 -171 -88
-185 0 -7 -5 -18 -11 -24 -17 -17 -49 -219 -49 -313 0 -89 32 -305 49 -339 6
-11 11 -28 11 -39 0 -11 7 -25 15 -32 8 -7 15 -23 15 -35 0 -28 59 -148 110
-225 73 -110 100 -147 115 -160 8 -7 15 -22 15 -34 0 -17 -12 -24 -63 -40 -34
-10 -73 -25 -87 -31 -14 -7 -45 -20 -70 -30 -57 -21 -111 -45 -130 -56 -8 -5
-22 -12 -30 -16 -68 -29 -102 -46 -175 -93 -22 -13 -48 -29 -57 -35 -79 -46
-283 -216 -357 -298 -55 -60 -121 -147 -121 -160 0 -5 38 -46 85 -90 47 -44
147 -151 222 -238 74 -88 142 -159 149 -159 7 0 19 9 27 21 15 20 167 160 229
210 34 27 147 105 183 125 52 30 163 84 172 84 6 0 16 7 23 15 7 8 20 15 30
15 10 0 23 7 30 15 7 8 22 15 34 15 11 0 30 7 40 15 11 8 34 15 51 15 17 0 40
7 51 15 10 8 30 15 44 15 14 0 34 6 45 14 11 7 34 16 50 19 17 3 50 10 75 16
68 15 127 13 158 -6 15 -10 59 -46 97 -80 39 -34 84 -73 102 -85 36 -26 190
-157 240 -205 l33 -31 0 -1520 c0 -1311 2 -1521 14 -1532 21 -17 697 -5 708
13 4 7 8 551 8 1210 0 1094 1 1197 16 1197 9 0 30 -11 48 -25 39 -32 128 -100
183 -140 22 -16 74 -57 113 -90 40 -33 97 -78 126 -101 160 -123 393 -351 492
-481 34 -45 62 -85 62 -88 0 -4 12 -24 28 -44 26 -35 109 -193 133 -256 27
-70 57 -223 65 -330 8 -102 -29 -336 -69 -435 -20 -51 -45 -101 -67 -135 -11
-16 -26 -43 -33 -60 -58 -124 -377 -423 -519 -485 -13 -6 -36 -19 -53 -30 -31
-21 -34 -22 -100 -47 -22 -8 -53 -21 -70 -28 -134 -57 -253 -88 -406 -104 -42
-5 -85 -14 -97 -20 -29 -15 -476 -15 -505 1 -12 6 -48 15 -82 19 -94 13 -207
35 -238 48 -16 6 -41 11 -56 11 -15 0 -36 7 -47 15 -10 8 -27 15 -36 15 -9 0
-29 6 -45 14 -15 8 -59 28 -98 45 -38 18 -77 36 -85 41 -8 5 -40 21 -70 36
-30 14 -69 37 -87 50 -17 13 -34 24 -37 24 -11 0 -147 98 -221 160 -113 95
-264 260 -320 349 -5 9 -22 32 -38 52 -15 20 -27 40 -27 44 0 3 -11 21 -24 38
-13 18 -37 58 -52 90 -16 32 -37 74 -47 93 -9 19 -28 67 -41 108 -14 41 -29
82 -34 92 -16 31 -32 102 -53 229 -17 98 -19 150 -15 280 5 172 22 318 39 350
6 11 14 38 18 60 14 78 77 221 141 318 21 32 38 61 38 64 0 10 64 88 98 120
31 28 34 36 25 55 -15 32 -171 218 -188 224 -18 7 -199 -128 -288 -215 -38
-36 -89 -93 -115 -126 -25 -33 -56 -71 -68 -85 -48 -54 -115 -160 -164 -260
-29 -58 -58 -118 -66 -133 -8 -16 -14 -37 -14 -47 0 -10 -4 -21 -9 -25 -46
-28 -109 -501 -90 -675 4 -41 8 -102 8 -134 1 -33 5 -73 10 -90 6 -17 15 -67
21 -111 6 -44 15 -84 20 -89 6 -6 10 -19 10 -31 0 -12 7 -30 15 -41 8 -10 15
-28 15 -39 0 -37 57 -178 111 -278 6 -10 20 -37 31 -60 12 -23 32 -56 45 -74
12 -17 23 -35 23 -38 0 -4 13 -24 30 -45 16 -21 30 -41 30 -44 0 -4 30 -46 66
-94 113 -151 310 -352 465 -474 82 -66 189 -142 210 -150 8 -3 42 -23 75 -44
79 -51 136 -82 244 -132 161 -74 199 -90 255 -107 33 -10 69 -22 80 -28 11 -6
49 -17 85 -24 139 -30 134 -29 285 -68 87 -23 464 -48 604 -40 209 12 418 33
439 44 12 6 36 11 55 11 19 0 57 6 83 14 77 22 136 37 179 45 22 4 49 12 60
18 36 19 95 43 107 43 16 0 261 117 313 150 17 10 50 29 75 41 25 12 61 35 81
51 20 15 41 28 47 28 6 0 30 16 54 36 23 20 59 47 78 59 49 31 263 245 335
334 49 60 141 190 202 287 13 21 46 89 70 144 9 19 22 47 29 62 8 14 14 33 14
42 0 8 6 30 14 48 25 61 38 103 46 148 5 25 14 68 21 95 8 33 12 142 13 320 0
229 -3 277 -17 315 -9 25 -17 58 -17 73 0 15 -6 40 -14 55 -7 15 -16 46 -20
69 -3 23 -17 63 -31 89 -14 26 -25 53 -25 60 0 12 -47 113 -71 154 -5 8 -13
25 -19 37 -5 13 -31 55 -57 94 -26 39 -55 81 -63 94 -58 89 -110 162 -124 174
-32 27 -20 48 31 56 26 4 60 13 75 21 15 8 39 14 53 14 15 0 39 6 53 14 15 8
47 22 72 31 75 28 173 77 210 105 19 14 47 31 61 37 14 6 47 29 73 52 26 23
50 41 54 41 13 0 230 223 258 265 124 182 127 187 143 223 6 12 22 39 36 60
14 20 25 43 25 52 0 8 14 42 30 75 16 33 30 71 30 86 0 14 5 30 12 37 6 6 15
30 19 54 4 24 12 61 18 83 21 80 41 293 41 425 0 124 -16 270 -41 380 -6 25
-14 63 -18 85 -4 22 -12 49 -18 60 -7 11 -14 28 -17 38 -5 16 -30 17 -340 17
-212 0 -337 -4 -341 -10 -3 -5 1 -20 9 -32 9 -12 16 -35 16 -50 0 -14 5 -39
11 -55 7 -15 16 -53 20 -83 5 -30 13 -75 18 -100 13 -60 14 -316 1 -341 -6
-10 -15 -47 -20 -82 -10 -70 -27 -137 -45 -182 -43 -102 -100 -209 -130 -245
-19 -23 -35 -45 -35 -49 0 -11 -201 -211 -212 -211 -5 0 -24 -11 -41 -24 -18
-14 -43 -30 -57 -35 -14 -6 -38 -20 -55 -31 -16 -11 -37 -22 -45 -26 -8 -3
-26 -10 -40 -16 -35 -14 -133 -37 -207 -48 -35 -5 -72 -14 -82 -20 -11 -5 -80
-10 -154 -10 l-134 0 -73 70 c-41 39 -83 76 -95 83 -21 11 -83 59 -198 152
-27 22 -57 45 -66 50 -9 6 -55 42 -101 81 -47 39 -159 127 -249 195 -210 158
-215 162 -309 236 -75 59 -132 116 -132 132 0 4 122 11 271 14 221 5 275 9
294 21 14 9 39 16 57 16 37 0 125 28 206 66 29 13 57 24 62 24 17 0 94 43 173
97 43 29 81 53 85 53 4 1 48 38 98 83 112 102 254 266 254 295 0 5 6 15 14 21
8 7 24 31 35 54 12 23 25 49 30 57 26 44 62 144 68 190 3 19 11 42 18 50 7 8
15 33 18 55 3 22 10 63 16 90 12 61 13 214 1 275 -28 148 -97 311 -172 411
-16 20 -28 40 -28 44 0 12 -127 152 -200 221 -60 58 -154 134 -165 134 -2 0
-25 14 -50 31 -25 17 -63 33 -84 36 -32 4 -43 0 -84 -33 -64 -53 -67 -71 -23
-135 20 -30 36 -59 36 -66 0 -7 13 -39 29 -70 31 -63 48 -119 61 -198 4 -27
13 -76 19 -108 23 -111 6 -283 -47 -477 -20 -73 -88 -180 -173 -271 -89 -97
-250 -209 -299 -209 -8 0 -24 -6 -35 -14 -11 -7 -33 -16 -50 -19 -16 -3 -40
-8 -51 -12 -15 -5 -24 -1 -30 12 -5 10 -11 407 -14 883 l-5 865 -356 3 c-195
1 -358 -1 -362 -5z"/>
</g>
</svg>
